<svg width="150" height="150" viewBox="0 0 150 150" fill="none" xmlns="http://www.w3.org/2000/svg">
<circle cx="75" cy="75" r="75" fill="white"/>
<g clip-path="url(#clip0_1505_3391)">
<path d="M108.973 73.0768C108.559 73.0768 108.153 72.923 107.864 72.6239C106.707 71.4102 105.463 70.1794 104.171 68.9828C103.621 68.47 103.64 67.658 104.219 67.1709C104.798 66.6837 105.714 66.7008 106.263 67.2136C107.604 68.4529 108.886 69.7179 110.082 70.9743C110.593 71.5127 110.516 72.3247 109.909 72.7777C109.639 72.9828 109.311 73.0768 108.973 73.0768Z" fill="#79C651"/>
<path d="M92.6856 59.5127C92.377 59.5127 92.0781 59.4273 91.8081 59.2478C90.6509 58.47 89.4455 57.6922 88.2304 56.9315C85.7136 55.376 83.1292 53.8973 80.5255 52.5469C79.8408 52.1879 79.5998 51.4016 80.0048 50.7948C80.4098 50.1794 81.297 49.9828 81.9816 50.3332C84.6528 51.7179 87.3047 53.2307 89.8891 54.829C91.133 55.5982 92.3674 56.4016 93.5535 57.1965C94.1899 57.6238 94.3153 58.4273 93.8331 58.9914C93.5535 59.3247 93.1195 59.4956 92.6759 59.4956L92.6856 59.5127Z" fill="#79C651"/>
<path d="M68.2885 47.0256C68.1053 47.0256 67.9221 46.9914 67.7389 46.9316C65.6656 46.1795 63.5826 45.5128 61.5576 44.9402C60.7957 44.7265 60.3714 44.0085 60.6125 43.3333C60.8536 42.6581 61.6636 42.282 62.4254 42.4957C64.518 43.0855 66.6781 43.7778 68.8189 44.5555C69.5614 44.8205 69.9182 45.5726 69.6096 46.2308C69.3782 46.7265 68.8382 47.0256 68.2692 47.0256H68.2885Z" fill="#79C651"/>
<path d="M71.1909 91.2392C65.54 91.4614 58.4233 84.47 58.4233 78.6837C58.4233 72.8973 62.9749 68.3674 68.5776 68.3674C70.1688 68.3674 72.1745 68.9144 73.515 69.5811C74.8554 68.923 76.9865 68.3674 78.568 68.3674C84.1803 68.3674 88.7223 72.9914 88.7223 78.6837C88.7223 84.376 81.6152 91.4614 75.9547 91.2392H71.1717H71.1909Z" fill="#FFC960"/>
<path d="M52.5699 104.684C51.972 104.684 51.4127 104.35 51.2005 103.82C49.8698 100.402 48.7897 96.6922 47.9797 92.8034C47.8351 92.111 48.3558 91.4358 49.1369 91.3076C49.9276 91.1709 50.6798 91.641 50.8244 92.3333C51.6152 96.1025 52.6567 99.6837 53.9392 102.983C54.1996 103.65 53.7945 104.385 53.0424 104.615C52.8881 104.667 52.7242 104.684 52.5699 104.684Z" fill="#252D32"/>
<path d="M73.9587 125C67.1698 125 60.6607 120.649 55.6462 112.752C55.2508 112.137 55.5016 111.35 56.1959 111.008C56.8902 110.658 57.7774 110.88 58.1631 111.496C62.6472 118.555 68.2595 122.444 73.9587 122.444C79.6578 122.444 85.4244 118.453 89.9374 111.196C90.3232 110.573 91.2103 110.35 91.9047 110.692C92.6086 111.034 92.8593 111.812 92.4736 112.436C87.4206 120.547 80.8535 125.008 73.9587 125.008V125Z" fill="#252D32"/>
<path d="M95.2604 104.915C95.1061 104.915 94.9422 104.889 94.7879 104.846C94.0357 104.615 93.6307 103.88 93.9007 103.214C95.2026 99.8975 96.273 96.2821 97.0733 92.4616C97.218 91.7608 97.9798 91.3078 98.7609 91.436C99.542 91.5642 100.063 92.2394 99.9181 92.9317C99.0888 96.8719 97.9798 100.615 96.6298 104.06C96.4273 104.59 95.8583 104.923 95.2604 104.923V104.915Z" fill="#252D32"/>
<path d="M100.149 81.2393C100.149 81.2393 100.101 81.2393 100.082 81.2393C99.2815 81.2051 98.6643 80.6068 98.7029 79.8974C98.7897 78.2735 98.8379 76.6239 98.8379 75.0085C98.8379 48.8547 87.6711 27.5726 73.9585 27.5726C60.2458 27.5726 49.079 48.8547 49.079 75.0085C49.079 76.3761 49.1079 77.7692 49.1754 79.1538C49.2044 79.8633 48.5872 80.4615 47.7868 80.4872C46.9961 80.5299 46.3114 79.9658 46.2825 79.2564C46.215 77.8462 46.186 76.4103 46.186 75.0085C46.186 46.9658 58.3847 25 73.9585 25C89.5322 25 101.731 46.9658 101.731 75C101.731 76.6667 101.683 78.3504 101.596 80.0171C101.557 80.7009 100.921 81.2393 100.149 81.2393Z" fill="#252D32"/>
<path d="M79.2432 100.855C78.7321 100.855 78.2403 100.615 77.9799 100.197C77.5942 99.5812 77.8449 98.7948 78.5392 98.453C81.8179 96.8376 85.0773 95.0256 88.2307 93.0598C100.082 85.7008 109.667 76.8461 115.212 68.1196C120.574 59.6837 121.49 52.4615 117.797 47.7863C114.566 43.7008 107.874 41.8461 98.9346 42.5726C98.1246 42.641 97.4303 42.1196 97.3628 41.4102C97.2953 40.7008 97.8739 40.0769 98.6742 40.0171C108.684 39.2051 116.321 41.4444 120.169 46.3162C124.537 51.8461 123.679 60.0427 117.739 69.3846C111.982 78.4359 102.098 87.5897 89.8893 95.1624C86.6492 97.1709 83.303 99.0341 79.9471 100.692C79.7254 100.803 79.4843 100.855 79.2432 100.855Z" fill="#FFC960"/>
<path d="M45.2895 110.171C37.3242 110.171 31.1526 107.991 27.7485 103.684C23.0619 97.7522 24.4795 88.5471 31.6444 78.4359C32.0687 77.8377 32.9655 77.6582 33.6405 78.0342C34.3155 78.4103 34.518 79.2052 34.0937 79.8035C27.5749 89.0001 26.1285 97.171 30.1111 102.214C35.5113 109.051 50.2943 109.385 67.7774 103.06C68.52 102.786 69.3589 103.103 69.6675 103.761C69.9664 104.419 69.6193 105.162 68.8768 105.436C60.1207 108.607 52.059 110.171 45.2895 110.171Z" fill="#FFC960"/>
<path d="M39.9374 72.0512C39.5999 72.0512 39.2624 71.9487 38.9828 71.735C38.3849 71.2649 38.3174 70.4615 38.8478 69.923C39.8314 68.9316 40.8632 67.9316 41.9239 66.9572C42.4833 66.4444 43.3994 66.4358 43.9683 66.923C44.5469 67.4187 44.5565 68.2222 44.0069 68.735C42.9751 69.6837 41.9722 70.6495 41.0271 71.6153C40.7378 71.9059 40.3425 72.0512 39.9374 72.0512Z" fill="#FFC960"/>
<path d="M54.4697 60.0256C54.0358 60.0256 53.6115 59.8547 53.3222 59.5299C52.8304 58.9658 52.9461 58.1624 53.5826 57.735C55.0194 56.7521 56.5141 55.7777 58.0184 54.8376C67.7099 48.8205 77.9799 44.3504 87.7195 41.8974C88.4813 41.7008 89.2913 42.1025 89.5035 42.7777C89.7253 43.4615 89.272 44.1709 88.5102 44.3589C79.0792 46.735 69.1081 51.0769 59.6771 56.9316C58.2017 57.8461 56.7455 58.7948 55.3473 59.7521C55.0869 59.9316 54.7687 60.0171 54.4601 60.0171L54.4697 60.0256Z" fill="#FFC960"/>
<path d="M76.2438 92.9573C76.1281 92.9573 76.022 92.9573 75.9159 92.9573H71.2293C68.5389 93.0428 65.5688 91.8376 62.8398 89.5214C59.2236 86.4616 56.9863 82.3334 56.9863 78.7522C56.9863 72.1881 62.1937 66.8547 68.5871 66.8547C70.2554 66.8547 72.1454 67.359 73.5244 67.9402C75.0866 67.2906 77.0635 66.8547 78.5775 66.8547C84.9805 66.8547 90.1782 72.1966 90.1782 78.7522C90.1782 82.3334 87.9314 86.4616 84.3248 89.5214C81.6922 91.7522 78.8378 92.9573 76.2342 92.9573H76.2438ZM68.5871 69.4103C63.7848 69.4103 59.8793 73.5983 59.8793 78.7436C59.8793 81.6069 61.8272 85.1111 64.8455 87.6582C66.9767 89.4616 69.2718 90.453 71.1329 90.3846C71.1522 90.3846 71.1811 90.3846 71.2004 90.3846H75.9834C77.9217 90.4616 80.2072 89.4701 82.3383 87.6582C85.3566 85.1026 87.3046 81.6069 87.3046 78.7436C87.3046 73.5983 83.3991 69.4103 78.5967 69.4103C77.3528 69.4103 75.4434 69.8804 74.2573 70.4872C73.8137 70.7094 73.2641 70.7094 72.8205 70.4872C71.5861 69.8633 69.8118 69.4103 68.5967 69.4103H68.5871Z" fill="#252D32"/>
<path d="M74.1516 69.359C74.0551 69.359 73.9587 69.359 73.8623 69.3334C73.0812 69.1966 72.5701 68.5214 72.7244 67.8291C73.6501 63.7436 70.8439 59.5471 70.815 59.5043C70.4004 58.8975 70.6222 58.1112 71.3068 57.7436C71.9915 57.3761 72.8787 57.5727 73.2933 58.1795C73.4283 58.3847 76.6974 63.2821 75.5595 68.3248C75.4245 68.9317 74.8169 69.359 74.1419 69.359H74.1516Z" fill="#252D32"/>
<path d="M78.3942 59.7179C76.6488 61.4187 76.7163 62.735 77.6709 63.5042C78.6256 64.2734 80.1203 64.205 81.8561 62.5127C83.6015 60.8119 83.9776 57.3589 83.9776 57.3589C83.9776 57.3589 80.13 58.017 78.3845 59.7179H78.3942Z" fill="#79C651"/>
<path d="M107.16 112.607C110.089 112.607 112.464 110.502 112.464 107.906C112.464 105.31 110.089 103.205 107.16 103.205C104.231 103.205 101.856 105.31 101.856 107.906C101.856 110.502 104.231 112.607 107.16 112.607Z" fill="#79C651"/>
<path d="M119.696 51.9232C122.626 51.9232 125 49.8185 125 47.2223C125 44.6261 122.626 42.5215 119.696 42.5215C116.767 42.5215 114.393 44.6261 114.393 47.2223C114.393 49.8185 116.767 51.9232 119.696 51.9232Z" fill="#FFC960"/>
<path d="M37.7291 47.6495C40.6582 47.6495 43.0328 45.5449 43.0328 42.9487C43.0328 40.3524 40.6582 38.2478 37.7291 38.2478C34.7999 38.2478 32.4253 40.3524 32.4253 42.9487C32.4253 45.5449 34.7999 47.6495 37.7291 47.6495Z" fill="#79C651"/>
<path d="M102.551 110.205C90.1882 110.205 73.8526 104.992 58.0281 95.171C45.8295 87.5984 35.9355 78.4445 30.1785 69.3932C24.2383 60.0428 23.3801 51.8548 27.7485 46.3249C31.5479 41.5214 39.0503 39.2736 48.8767 40.0001C49.6771 40.0599 50.2653 40.6753 50.1978 41.3847C50.1303 42.0941 49.4167 42.624 48.6356 42.5556C39.8796 41.9061 33.3029 43.7693 30.1207 47.7949C26.4273 52.4787 27.3434 59.7009 32.7051 68.1283C38.2499 76.8548 47.8352 85.7095 59.6867 93.0684C83.8622 108.068 109.928 112.171 117.797 102.214C121.856 97.0684 120.285 88.7351 113.486 79.3334C113.052 78.7351 113.245 77.9488 113.92 77.5642C114.595 77.1881 115.482 77.3505 115.916 77.9488C123.39 88.265 124.933 97.6411 120.159 103.684C116.678 108.086 110.42 110.205 102.541 110.205H102.551Z" fill="#79C651"/>
</g>
<defs>
<clipPath id="clip0_1505_3391">
<rect width="100" height="100" fill="white" transform="translate(25 25)"/>
</clipPath>
</defs>
</svg>
