<svg width="150" height="150" viewBox="0 0 150 150" fill="none" xmlns="http://www.w3.org/2000/svg">
<circle cx="75" cy="75" r="75" fill="white"/>
<g clip-path="url(#clip0_1506_3456)">
<path d="M55.0377 76.2176V35.7827H48.9502V88.3121C51.5591 88.7974 54.168 78.9133 55.0377 76.2176Z" fill="#FFC960"/>
<path d="M114.173 35.7827V113.957H58.5161L55.9072 121.145H120.261V35.7827H114.173Z" fill="#FFC960"/>
<path d="M98.4592 44.7681H88.5192C88.0844 44.7681 87.6756 44.5435 87.4321 44.1661L86.0842 42.0724H83.1361L81.7882 44.1661C81.5447 44.5435 81.1359 44.7681 80.7011 44.7681H70.7611C68.8131 44.7681 67.2217 43.1237 67.2217 41.111V34.9469C67.2217 32.9341 68.8131 31.2898 70.7611 31.2898H98.4679C100.416 31.2898 102.007 32.9341 102.007 34.9469V41.111C102.007 43.1237 100.416 44.7681 98.4679 44.7681H98.4592ZM89.2149 42.0724H98.4592C98.9723 42.0724 99.3897 41.6411 99.3897 41.111V34.9469C99.3897 34.4168 98.9723 33.9855 98.4592 33.9855H70.7524C70.2393 33.9855 69.8219 34.4168 69.8219 34.9469V41.111C69.8219 41.6411 70.2393 42.0724 70.7524 42.0724H79.9967L81.3446 39.9788C81.5881 39.6014 81.9969 39.3768 82.4317 39.3768H86.7799C87.2147 39.3768 87.6235 39.6014 87.867 39.9788L89.2149 42.0724Z" fill="#252D32"/>
<path d="M118.469 122.044H57.2117C56.4899 122.044 55.9072 121.442 55.9072 120.696C55.9072 119.95 56.4899 119.348 57.2117 119.348H118.469C118.982 119.348 119.391 118.917 119.391 118.396V37.6337C119.391 37.1036 118.974 36.6813 118.469 36.6813H105.912C105.19 36.6813 104.607 36.0792 104.607 35.3334C104.607 34.5876 105.19 33.9856 105.912 33.9856H118.469C120.417 33.9856 122 35.621 122 37.6337V118.387C122 120.399 120.417 122.035 118.469 122.035V122.044Z" fill="#252D32"/>
<path d="M48.5154 85.2031C47.7936 85.2031 47.2109 84.6011 47.2109 83.8553V37.6337C47.2109 35.621 48.7937 33.9856 50.7417 33.9856H63.2993C64.0211 33.9856 64.6038 34.5876 64.6038 35.3334C64.6038 36.0792 64.0211 36.6813 63.2993 36.6813H50.7417C50.2286 36.6813 49.8199 37.1126 49.8199 37.6337V83.8553C49.8199 84.6011 49.2372 85.2031 48.5154 85.2031Z" fill="#252D32"/>
<path d="M95.4761 32.1884C94.7542 32.1884 94.1716 31.5864 94.1716 30.8406V29.0435C94.1716 28.3067 93.5889 27.6957 92.8671 27.6957H76.3353C75.6222 27.6957 75.0308 28.2977 75.0308 29.0435V30.8406C75.0308 31.5864 74.4481 32.1884 73.7263 32.1884C73.0045 32.1884 72.4219 31.5864 72.4219 30.8406V29.0435C72.4219 26.8151 74.1785 25 76.3353 25H92.8671C95.0238 25 96.7805 26.8151 96.7805 29.0435V30.8406C96.7805 31.5864 96.1979 32.1884 95.4761 32.1884Z" fill="#252D32"/>
<path d="M95.4759 39.3768H94.6062C93.8844 39.3768 93.3018 38.7748 93.3018 38.029C93.3018 37.2832 93.8844 36.6812 94.6062 36.6812H95.4759C96.1977 36.6812 96.7803 37.2832 96.7803 38.029C96.7803 38.7748 96.1977 39.3768 95.4759 39.3768Z" fill="#252D32"/>
<path d="M74.6048 39.3768H73.7351C73.0133 39.3768 72.4307 38.7748 72.4307 38.029C72.4307 37.2832 73.0133 36.6812 73.7351 36.6812H74.6048C75.3266 36.6812 75.9092 37.2832 75.9092 38.029C75.9092 38.7748 75.3266 39.3768 74.6048 39.3768Z" fill="#252D32"/>
<path d="M82.4317 58.2464H65.0388C64.317 58.2464 63.7344 57.6444 63.7344 56.8986C63.7344 56.1528 64.317 55.5508 65.0388 55.5508H82.4317C83.1535 55.5508 83.7361 56.1528 83.7361 56.8986C83.7361 57.6444 83.1535 58.2464 82.4317 58.2464Z" fill="#252D32"/>
<path d="M82.4311 68.1305H71.1258C70.4039 68.1305 69.8213 67.5284 69.8213 66.7826C69.8213 66.0368 70.4039 65.4348 71.1258 65.4348H82.4311C83.1529 65.4348 83.7355 66.0368 83.7355 66.7826C83.7355 67.5284 83.1529 68.1305 82.4311 68.1305Z" fill="#252D32"/>
<path d="M82.4316 85.203H70.2566C69.5348 85.203 68.9521 84.601 68.9521 83.8552C68.9521 83.1094 69.5348 82.5073 70.2566 82.5073H82.4316C83.1534 82.5073 83.736 83.1094 83.736 83.8552C83.736 84.601 83.1534 85.203 82.4316 85.203Z" fill="#252D32"/>
<path d="M82.4316 95.0873H70.2566C69.5348 95.0873 68.9521 94.4852 68.9521 93.7394C68.9521 92.9936 69.5348 92.3916 70.2566 92.3916H82.4316C83.1534 92.3916 83.736 92.9936 83.736 93.7394C83.736 94.4852 83.1534 95.0873 82.4316 95.0873Z" fill="#252D32"/>
<path d="M49.8367 124.155L52.7065 116.796L26.4782 106.265L23.3301 114.011L49.8367 124.155Z" fill="#79C651"/>
<path d="M49.9674 125C49.8021 125 49.6369 124.964 49.4717 124.901C48.8021 124.614 48.489 123.832 48.7586 123.14L50.9849 117.551L27.1567 107.981L24.4869 114.307C24.1999 114.99 23.4346 115.305 22.7737 115.008C22.1128 114.712 21.8084 113.912 22.0954 113.238L25.2696 105.726C25.5479 105.061 26.287 104.747 26.9393 105.007L53.1763 115.538C53.5068 115.673 53.7677 115.934 53.9068 116.266C54.046 116.598 54.046 116.976 53.9068 117.308L51.1675 124.173C50.9588 124.694 50.4718 125.009 49.9587 125.009L49.9674 125Z" fill="#252D32"/>
<path d="M28.5659 107.945C28.4789 107.945 28.4006 107.945 28.3137 107.918C27.6092 107.775 27.1483 107.065 27.2875 106.337L28.131 101.916C28.705 98.897 28.9311 95.806 28.792 92.7329L28.2354 80.288C28.131 77.9068 28.8354 75.5526 30.2182 73.6477L43.0976 54.3378C43.5063 53.7267 44.3151 53.574 44.9151 53.9963C45.5065 54.4186 45.6543 55.2543 45.2456 55.8743L32.3401 75.2291C31.2878 76.6758 30.766 78.41 30.8443 80.1622L31.4009 92.6071C31.5487 95.9048 31.3139 99.2115 30.6965 102.437L29.8529 106.858C29.7312 107.496 29.1833 107.945 28.5745 107.945H28.5659Z" fill="#252D32"/>
<path d="M51.4285 116.311C51.2111 116.311 50.9936 116.257 50.7849 116.14C50.1588 115.772 49.9327 114.954 50.2892 114.307L52.0024 111.171C52.0372 111.108 52.0807 111.046 52.1242 110.983C52.8808 110.021 53.6895 109.266 54.4635 108.539C56.2463 106.876 58.0899 105.151 59.7335 100.452C60.5075 98.2322 60.8988 94.2157 61.2119 90.9899C61.4206 88.8333 61.6033 86.9733 61.8642 85.7782C62.499 82.9119 64.1426 74.9237 64.16 74.8518C64.6383 73.0817 63.7339 71.3025 62.125 70.7275C61.2728 70.422 60.3684 70.4939 59.5683 70.9341C58.7682 71.3744 58.203 72.1023 57.9682 73.0008C56.368 78.7605 53.3591 86.578 52.0024 88.5098C51.0371 89.8846 48.6369 90.882 46.8541 90.6484C46.141 90.5585 45.6367 89.8756 45.7236 89.1388C45.8106 88.402 46.4628 87.8809 47.1846 87.9707C48.1325 88.0965 49.55 87.4046 49.8892 86.9194C50.9675 85.3829 53.8635 78.0058 55.4549 72.264C55.8723 70.6825 56.9246 69.3167 58.3508 68.535C59.7683 67.7623 61.4554 67.6185 62.9773 68.1666C65.8906 69.1999 67.5168 72.4168 66.6907 75.4808C66.6907 75.4808 65.047 83.4869 64.4035 86.3713C64.1774 87.3956 63.9948 89.2646 63.8034 91.2504C63.4643 94.7997 63.073 98.8163 62.1859 101.359C60.3162 106.697 58.1334 108.736 56.2028 110.533C55.4897 111.198 54.8201 111.827 54.2026 112.591L52.5503 115.628C52.3068 116.068 51.872 116.311 51.4111 116.311H51.4285Z" fill="#252D32"/>
<path d="M105.912 73.522H90.2586C89.5368 73.522 88.9541 72.9199 88.9541 72.1741V56.0002C88.9541 55.2544 89.5368 54.6523 90.2586 54.6523H101.564C102.286 54.6523 102.868 55.2544 102.868 56.0002C102.868 56.746 102.286 57.348 101.564 57.348H91.563V70.8263H104.608V66.7828C104.608 66.037 105.19 65.435 105.912 65.435C106.634 65.435 107.217 66.037 107.217 66.7828V72.1741C107.217 72.9199 106.634 73.522 105.912 73.522Z" fill="#79C651"/>
<path d="M98.9543 68.1305C98.5369 68.1215 98.1716 67.9328 97.9368 67.6273L94.4582 63.1346C94.006 62.5505 94.1017 61.7059 94.6583 61.2386C95.2235 60.7714 96.041 60.8702 96.4932 61.4453L99.0152 64.698L105.816 56.8896C106.303 56.3325 107.12 56.2966 107.659 56.7908C108.199 57.285 108.233 58.1386 107.755 58.6957L99.9283 67.6812C99.6761 67.9688 99.3282 68.1305 98.9543 68.1305Z" fill="#252D32"/>
<path d="M105.912 101.377H90.2586C89.5368 101.377 88.9541 100.775 88.9541 100.029V83.8552C88.9541 83.1094 89.5368 82.5073 90.2586 82.5073H101.564C102.286 82.5073 102.868 83.1094 102.868 83.8552C102.868 84.601 102.286 85.203 101.564 85.203H91.563V98.6813H104.608V94.6378C104.608 93.892 105.19 93.29 105.912 93.29C106.634 93.29 107.217 93.892 107.217 94.6378V100.029C107.217 100.775 106.634 101.377 105.912 101.377Z" fill="#79C651"/>
<path d="M98.9543 95.9857C98.5369 95.9767 98.1716 95.788 97.9368 95.4825L94.4582 90.9897C94.006 90.4056 94.1017 89.561 94.6583 89.0938C95.2235 88.6265 96.041 88.7253 96.4932 89.3004L99.0152 92.5532L105.816 84.7448C106.303 84.1877 107.12 84.1427 107.659 84.6459C108.199 85.1401 108.233 85.9937 107.755 86.5508L99.9283 95.5364C99.6761 95.8239 99.3282 95.9857 98.9543 95.9857Z" fill="#252D32"/>
</g>
<defs>
<clipPath id="clip0_1506_3456">
<rect width="100" height="100" fill="white" transform="translate(22 25)"/>
</clipPath>
</defs>
</svg>
