<svg width="150" height="150" viewBox="0 0 150 150" fill="none" xmlns="http://www.w3.org/2000/svg">
<circle cx="75" cy="75" r="75" fill="white"/>
<g clip-path="url(#clip0_1505_3412)">
<path d="M72.615 86.0955C68.5467 86.0779 64.444 84.751 60.3242 82.1504L72.3404 119.302H91.9352C78.1339 109.766 71.0443 97.6656 72.615 86.0955Z" fill="#79C651"/>
<path d="M103.771 77.356C109.101 68.8288 125.322 71.0844 129.588 82.8049C134.472 96.2415 122.953 111.076 103.771 120.664C84.5876 111.076 73.3697 96.2326 78.2534 82.8049C82.5191 71.0844 98.4405 68.8288 103.771 77.356Z" fill="#FFC960"/>
<path d="M55.5348 56.7369C53.0801 56.7369 51.0202 54.8439 50.7541 52.3229L50.6683 51.5445C50.5396 50.3326 50.9172 49.1119 51.7068 48.2008C52.4621 47.3339 53.5264 46.8209 54.6508 46.7678C54.6851 46.7678 54.7109 46.7678 54.7452 46.7678H54.8225C55.5348 46.7678 56.1099 47.3605 56.1099 48.0947C56.1099 48.8289 55.5348 49.4215 54.8225 49.4215C54.359 49.4215 53.9384 49.6161 53.6294 49.9699C53.3204 50.3238 53.1831 50.7837 53.2346 51.2526L53.3204 52.031C53.4492 53.1986 54.4019 54.0832 55.5434 54.0832C56.2558 54.0832 56.8309 54.6758 56.8309 55.41C56.8309 56.1442 56.2558 56.7369 55.5434 56.7369H55.5348Z" fill="#252D32"/>
<path d="M90.3724 56.7369C89.66 56.7369 89.085 56.1442 89.085 55.41C89.085 54.6758 89.66 54.0832 90.3724 54.0832C91.4195 54.0832 92.3036 53.2074 92.4151 52.0398L92.4924 51.2614C92.5439 50.7661 92.3894 50.2707 92.0804 49.908C91.8058 49.5896 91.4367 49.4215 91.0419 49.4215H90.7844C90.072 49.4215 89.4969 48.8289 89.4969 48.0947C89.4969 47.3605 90.072 46.7678 90.7844 46.7678H91.0419C92.1577 46.7678 93.2305 47.2632 93.9944 48.1389C94.7926 49.0588 95.1789 50.2972 95.0587 51.5445L94.9814 52.3229C94.724 54.8439 92.7413 56.7457 90.3724 56.7457V56.7369Z" fill="#252D32"/>
<path d="M51.3119 120.187C50.5995 120.187 50.0244 119.594 50.0244 118.86V107.361C50.0244 106.626 50.5995 106.034 51.3119 106.034C52.0242 106.034 52.5993 106.626 52.5993 107.361V118.86C52.5993 119.594 52.0242 120.187 51.3119 120.187Z" fill="#252D32"/>
<path d="M72.3312 74.552C64.5636 74.552 55.1738 65.8833 55.1738 55.1181V42.7873C55.1738 42.0531 55.7489 41.4604 56.4613 41.4604C57.1737 41.4604 57.7487 42.0531 57.7487 42.7873V55.1181C57.7487 64.4149 65.7223 71.8983 72.3312 71.8983C78.5538 71.8983 87.7891 64.9987 87.7891 55.4631V43.6719C87.7891 42.9377 88.3641 42.345 89.0765 42.345C89.7889 42.345 90.3639 42.9377 90.3639 43.6719V55.4631C90.3639 66.0336 80.5021 74.552 72.3312 74.552Z" fill="#252D32"/>
<path d="M89.9347 44.1141H55.6029C54.8905 44.1141 54.3154 43.5215 54.3154 42.7873V28.6785C54.3154 24.9987 57.2251 22 60.7956 22H84.742C88.3125 22 91.2221 24.9987 91.2221 28.6785V42.7873C91.2221 43.5215 90.6471 44.1141 89.9347 44.1141ZM56.8903 41.4604H88.6472V28.6785C88.6472 26.4582 86.8963 24.6537 84.742 24.6537H60.7956C58.6412 24.6537 56.8903 26.4582 56.8903 28.6785V41.4604Z" fill="#252D32"/>
<path d="M89.0768 37.0375H83.0687C82.3563 37.0375 81.7812 36.4448 81.7812 35.7106C81.7812 34.9764 82.3563 34.3838 83.0687 34.3838H89.0768C89.7891 34.3838 90.3642 34.9764 90.3642 35.7106C90.3642 36.4448 89.7891 37.0375 89.0768 37.0375Z" fill="#252D32"/>
<path d="M77.9188 37.0375H57.3197C56.6073 37.0375 56.0322 36.4448 56.0322 35.7106C56.0322 34.9764 56.6073 34.3838 57.3197 34.3838H77.9188C78.6311 34.3838 79.2062 34.9764 79.2062 35.7106C79.2062 36.4448 78.6311 37.0375 77.9188 37.0375Z" fill="#252D32"/>
<path d="M71.8763 120.585C71.3356 120.585 70.8292 120.231 70.6576 119.673L57.6286 79.072C57.4055 78.3732 57.7746 77.6302 58.444 77.4002C59.1221 77.1702 59.8516 77.5505 60.0662 78.2405L73.0951 118.842C73.3183 119.541 72.9492 120.284 72.2797 120.514C72.1424 120.558 72.0137 120.585 71.8763 120.585Z" fill="#252D32"/>
<path d="M91.6516 121.071H34.1458C33.4335 121.071 32.8584 120.479 32.8584 119.744V106.6C32.8584 91.7657 38.1455 84.2292 52.3675 78.7714C57.6717 76.7369 61.4482 74.9236 61.7229 70.0673C61.7658 69.3331 62.3666 68.767 63.0876 68.8201C63.7999 68.8643 64.3407 69.4924 64.2978 70.2266C63.8944 77.1792 58.0065 79.4437 53.2687 81.2571C40.1024 86.3079 35.4419 92.9422 35.4419 106.6V118.418H91.6602C92.3726 118.418 92.9477 119.01 92.9477 119.744C92.9477 120.479 92.3726 121.071 91.6602 121.071H91.6516Z" fill="#252D32"/>
<path d="M72.3826 87.6436C65.6793 87.6436 59.6713 83.6012 57.7744 77.8161C57.5427 77.1173 57.9118 76.3654 58.5812 76.1355C59.2593 75.9055 59.9888 76.277 60.212 76.9669C61.7569 81.6905 66.7608 84.9899 72.3826 84.9899C73.095 84.9899 73.6701 85.5826 73.6701 86.3168C73.6701 87.051 73.095 87.6436 72.3826 87.6436Z" fill="#252D32"/>
<path d="M72.6923 66.5024C71.2847 66.5024 69.8685 66.1575 68.6325 65.4763C68.006 65.1314 67.7656 64.3264 68.1004 63.6807C68.4351 63.0349 69.2162 62.7873 69.8427 63.1322C71.5507 64.0699 73.8252 64.0787 75.4903 63.1322C76.1169 62.7873 76.8979 63.0173 77.2412 63.663C77.5845 64.3087 77.3528 65.1137 76.7262 65.4675C75.5075 66.1486 74.0999 66.4936 72.6923 66.4936V66.5024Z" fill="#252D32"/>
<path d="M72.3997 60.0363H71.9105C71.1981 60.0363 70.623 59.4436 70.623 58.7094C70.623 57.9753 71.1981 57.3826 71.9105 57.3826H72.3997C72.8374 57.3826 73.1979 57.0111 73.1979 56.5599V52.3583C73.1979 48.8554 75.172 46.7678 78.4679 46.7678H82.21C82.9224 46.7678 83.4975 47.3605 83.4975 48.0947C83.4975 48.8289 82.9224 49.4215 82.21 49.4215H78.4679C76.6054 49.4215 75.7728 50.3238 75.7728 52.3583V56.5599C75.7728 58.4795 74.2622 60.0363 72.3997 60.0363Z" fill="#252D32"/>
<path d="M66.7607 49.4215H63.3275C62.6151 49.4215 62.04 48.8289 62.04 48.0947C62.04 47.3605 62.6151 46.7678 63.3275 46.7678H66.7607C67.473 46.7678 68.0481 47.3605 68.0481 48.0947C68.0481 48.8289 67.473 49.4215 66.7607 49.4215Z" fill="#252D32"/>
<path d="M65.5335 51.3057C64.7095 51.3057 64.04 51.9956 64.04 52.8448C64.04 53.694 64.7095 54.3839 65.5335 54.3839C66.3574 54.3839 67.0269 53.694 67.0269 52.8448C67.0269 51.9956 66.3574 51.3057 65.5335 51.3057Z" fill="#252D32"/>
<path d="M80.6477 51.3057C79.8238 51.3057 79.1543 51.9956 79.1543 52.8448C79.1543 53.694 79.8238 54.3839 80.6477 54.3839C81.4717 54.3839 82.1412 53.694 82.1412 52.8448C82.1412 51.9956 81.4717 51.3057 80.6477 51.3057Z" fill="#252D32"/>
<path d="M130.438 93.7206C130.36 93.7206 130.292 93.7206 130.214 93.7029C129.511 93.579 129.047 92.8891 129.167 92.1726C129.682 89.1208 129.416 86.1222 128.386 83.2827C126.086 76.9492 120.353 74.154 115.761 73.641C111.066 73.1279 106.895 74.8263 104.86 78.0815C104.388 78.8422 103.17 78.8422 102.698 78.0815C100.663 74.8351 96.5521 73.1279 91.9517 73.641C87.4284 74.1452 81.7723 76.9404 79.4635 83.2827C78.4507 86.0603 78.1674 88.9705 78.6052 91.9338C78.7082 92.6591 78.2275 93.3314 77.5237 93.4464C76.8199 93.5525 76.1676 93.0572 76.056 92.3318C75.5496 88.9086 75.8844 85.5561 77.0517 82.3451C79.3261 76.0912 84.9308 71.7392 91.677 70.9961C96.5521 70.4654 101.015 72.0399 103.779 75.189C106.551 72.0399 111.092 70.4565 116.035 70.9961C121.391 71.5888 128.086 74.8794 130.798 82.3451C132 85.6445 132.3 89.0943 131.708 92.6237C131.596 93.2694 131.056 93.7206 130.438 93.7206Z" fill="#252D32"/>
<path d="M103.77 122C103.581 122 103.384 121.956 103.212 121.867C93.1874 116.861 85.4027 110.536 80.682 103.583C80.2786 102.982 80.416 102.159 80.9996 101.735C81.5832 101.319 82.3815 101.46 82.7934 102.062C87.1708 108.519 94.4148 114.437 103.77 119.196C113.186 114.401 120.747 108.227 125.107 101.77C125.511 101.168 126.318 101.018 126.901 101.434C127.485 101.849 127.631 102.681 127.219 103.282C122.464 110.332 114.55 116.763 104.337 121.867C104.156 121.956 103.968 122 103.779 122H103.77Z" fill="#252D32"/>
<path d="M108.818 111.12C108.818 111.12 108.749 111.12 108.706 111.12C108.269 111.085 107.874 110.81 107.676 110.412L96.2782 87.7939L90.0127 98.3379C89.7809 98.736 89.3604 98.9748 88.914 98.9748H77.9193C77.2069 98.9748 76.6318 98.3822 76.6318 97.648C76.6318 96.9138 77.2069 96.3211 77.9193 96.3211H88.1931L95.274 84.4149C95.5143 84.008 95.9435 83.7515 96.4155 83.778C96.879 83.7957 97.2996 84.0699 97.5142 84.4945L109.024 107.334L116.766 96.843C117.006 96.5157 117.392 96.3211 117.787 96.3211H129.417C130.129 96.3211 130.704 96.9138 130.704 97.648C130.704 98.3822 130.129 98.9748 129.417 98.9748H118.422L109.839 110.607C109.59 110.943 109.213 111.129 108.818 111.129V111.12Z" fill="#252D32"/>
<path d="M34.5661 87.2278C33.991 87.2278 33.4589 86.8209 33.313 86.2194C32.4375 82.5926 31.9912 78.8421 31.9912 75.065C31.9912 60.4785 38.4885 47.0685 49.8094 38.2848C50.3759 37.8425 51.1827 37.9575 51.6118 38.5502C52.041 39.134 51.9294 39.9655 51.3544 40.4078C40.6943 48.6961 34.5747 61.3277 34.5747 75.0739C34.5747 78.6298 34.9952 82.1681 35.8192 85.5825C35.9909 86.2901 35.5703 87.0155 34.8837 87.1924C34.7807 87.2189 34.6777 87.2278 34.5747 87.2278H34.5661Z" fill="#79C651"/>
<path d="M119.349 68.7758C118.731 68.7758 118.19 68.3158 118.079 67.6701C115.787 53.9063 107.101 42.062 94.8447 35.985C94.201 35.6666 93.9349 34.8705 94.2439 34.2159C94.5529 33.5525 95.3167 33.2782 95.9605 33.5967C108.964 40.0452 118.182 52.6148 120.619 67.219C120.739 67.9443 120.267 68.6254 119.572 68.7493C119.495 68.7581 119.426 68.767 119.349 68.767V68.7758Z" fill="#79C651"/>
</g>
<defs>
<clipPath id="clip0_1505_3412">
<rect width="100" height="100" fill="white" transform="translate(32 22)"/>
</clipPath>
</defs>
</svg>
