<svg width="150" height="150" viewBox="0 0 150 150" fill="none" xmlns="http://www.w3.org/2000/svg">
<circle cx="75" cy="75" r="75" fill="white"/>
<g clip-path="url(#clip0_1505_3376)">
<path d="M35.7033 79.9104C36.7087 79.9104 37.5238 79.0955 37.5238 78.0901C37.5238 77.0848 36.7087 76.2698 35.7033 76.2698C34.6979 76.2698 33.8828 77.0848 33.8828 78.0901C33.8828 79.0955 34.6979 79.9104 35.7033 79.9104Z" fill="#79C651"/>
<path d="M42.6486 79.9104C43.6541 79.9104 44.4691 79.0955 44.4691 78.0901C44.4691 77.0848 43.6541 76.2698 42.6486 76.2698C41.6432 76.2698 40.8281 77.0848 40.8281 78.0901C40.8281 79.0955 41.6432 79.9104 42.6486 79.9104Z" fill="#79C651"/>
<path d="M49.5939 79.9104C50.5994 79.9104 51.4144 79.0955 51.4144 78.0901C51.4144 77.0848 50.5994 76.2698 49.5939 76.2698C48.5885 76.2698 47.7734 77.0848 47.7734 78.0901C47.7734 79.0955 48.5885 79.9104 49.5939 79.9104Z" fill="#79C651"/>
<path d="M28.7311 95.9293C28.5217 95.9293 28.3032 95.8838 28.103 95.7746C27.6115 95.5197 27.3202 94.9918 27.3657 94.4457L27.93 87.8652C26.7194 86.864 25.9912 85.3622 25.9912 83.7786V72.5926C25.9912 69.6528 28.3852 67.259 31.3253 67.259H53.4261C56.3662 67.259 58.7602 69.6528 58.7602 72.5926V83.7786C58.7602 86.7184 56.3662 89.1121 53.4261 89.1121H37.2146L29.6231 95.6107C29.3682 95.8292 29.0588 95.9384 28.7311 95.9384V95.9293ZM31.3344 69.9895C29.8962 69.9895 28.7311 71.1545 28.7311 72.5926V83.7786C28.7311 84.7069 29.2226 85.5443 30.0509 86.0176C30.5152 86.2815 30.7791 86.7912 30.7336 87.3191L30.3877 91.3602L35.831 86.7002C36.0768 86.4909 36.3954 86.3725 36.7231 86.3725H53.4534C54.8916 86.3725 56.0567 85.2075 56.0567 83.7695V72.5835C56.0567 71.1454 54.8916 69.9804 53.4534 69.9804H31.3344V69.9895Z" fill="#252D32"/>
<path d="M70.6025 84.0972C70.2839 84.0972 69.9653 83.988 69.7104 83.7695L61.7366 76.9433C61.1632 76.4518 61.0995 75.5871 61.591 75.0137C62.0825 74.4403 62.9473 74.3766 63.5207 74.8681L68.964 79.5281L68.6181 75.487C68.5726 74.9591 68.8366 74.4494 69.3008 74.1855C70.1291 73.7122 70.6207 72.8748 70.6207 71.9465V60.7696C70.6207 59.3315 69.4555 58.1665 68.0174 58.1665H44.9971C43.559 58.1665 42.3938 59.3315 42.3938 60.7696V64.0826C42.3938 64.8381 41.784 65.4479 41.0285 65.4479C40.273 65.4479 39.6631 64.8381 39.6631 64.0826V60.7696C39.6631 57.8298 42.057 55.436 44.9971 55.436H68.0174C70.9575 55.436 73.3514 57.8298 73.3514 60.7696V71.9465C73.3514 73.5301 72.6232 75.0319 71.4126 76.0331L71.9769 82.6136C72.0225 83.1688 71.7312 83.6876 71.2396 83.9425C71.0394 84.0426 70.83 84.0972 70.6116 84.0972H70.6025Z" fill="#FFC960"/>
<path d="M80.6148 112.767L76.9738 114.588H36.9229V118.41C36.9229 120.822 38.8799 122.779 41.292 122.779H84.2558L85.1661 115.498L80.6148 112.767Z" fill="#79C651"/>
<path d="M88.9891 33.5828H41.292C38.8799 33.5828 36.9229 35.5396 36.9229 37.9516V41.7743H93.3583V37.9516C93.3583 35.5396 91.4013 33.5828 88.9891 33.5828Z" fill="#79C651"/>
<path d="M93.8136 69.0793C93.0581 69.0793 92.4483 68.4695 92.4483 67.714V37.8697C92.4483 36.0038 90.9372 34.493 89.0712 34.493H41.2103C39.3443 34.493 37.8333 36.0129 37.8333 37.8697V56.792C37.8333 57.5475 37.2234 58.1573 36.4679 58.1573C35.7124 58.1573 35.1025 57.5475 35.1025 56.792V37.8697C35.1025 34.5021 37.8424 31.7625 41.2103 31.7625H89.0712C92.4392 31.7625 95.179 34.5021 95.179 37.8697V67.714C95.179 68.4695 94.5691 69.0793 93.8136 69.0793Z" fill="#252D32"/>
<path d="M75.6086 124.599H41.2103C37.8424 124.599 35.1025 121.86 35.1025 118.492V95.9292C35.1025 95.1738 35.7124 94.564 36.4679 94.564C37.2234 94.564 37.8333 95.1738 37.8333 95.9292V118.492C37.8333 120.358 39.3443 121.869 41.2103 121.869H75.6086C76.3641 121.869 76.974 122.479 76.974 123.234C76.974 123.99 76.3641 124.599 75.6086 124.599Z" fill="#252D32"/>
<path d="M93.8137 109.127C93.0491 109.127 92.2844 109.045 91.5107 108.872C85.8854 107.598 82.3354 101.991 83.6098 96.3572C84.8841 90.7323 90.4913 87.1827 96.1257 88.4569C101.751 89.7311 105.301 95.3378 104.027 100.972C102.934 105.832 98.6016 109.136 93.8137 109.136V109.127ZM93.8137 90.9235C90.2819 90.9235 87.0778 93.3627 86.2677 96.9579C85.3301 101.117 87.9517 105.268 92.1115 106.205C96.2804 107.143 100.422 104.521 101.36 100.362C102.297 96.2024 99.6757 92.0521 95.5158 91.1146C94.9424 90.9872 94.378 90.9235 93.8137 90.9235Z" fill="#252D32"/>
<path d="M92.8392 125C92.7391 125 92.639 124.991 92.5389 124.964L83.6639 122.961C83.3089 122.879 82.9995 122.661 82.8083 122.36C82.6171 122.051 82.5534 121.687 82.6354 121.332L83.7368 116.472C82.5534 115.807 81.4429 115.025 80.4234 114.133L76.209 116.799C75.8995 116.99 75.5354 117.054 75.1804 116.972C74.8254 116.89 74.5159 116.672 74.3248 116.372L69.464 108.681C69.2729 108.371 69.2092 108.007 69.2911 107.652C69.373 107.297 69.5915 106.988 69.8919 106.797L74.1063 104.13C73.7422 102.819 73.5147 101.481 73.4145 100.125L68.5538 99.0238C68.1988 98.9419 67.8893 98.7234 67.6982 98.4231C67.507 98.1136 67.4433 97.7495 67.5252 97.3946L69.5278 88.5205C69.6097 88.1655 69.8281 87.856 70.1285 87.6649C70.438 87.4738 70.8021 87.4101 71.1571 87.492L76.0178 88.5933C76.6823 87.4101 77.4651 86.2996 78.3572 85.2803L75.6901 81.0662C75.499 80.7567 75.4353 80.3927 75.5172 80.0377C75.5991 79.6827 75.8176 79.3733 76.118 79.1821L83.8096 74.3219C84.1191 74.1307 84.4832 74.067 84.8382 74.1489C85.1932 74.2308 85.5026 74.4493 85.6938 74.7496L88.3608 78.9637C89.6716 78.5996 91.0097 78.3721 92.3659 78.272L93.4673 73.4117C93.5492 73.0567 93.7677 72.7473 94.0681 72.5561C94.3776 72.365 94.7417 72.2922 95.0967 72.3832L103.972 74.3856C104.327 74.4675 104.636 74.6859 104.827 74.9863C105.018 75.2957 105.082 75.6598 105 76.0148L103.899 80.8751C105.082 81.5395 106.193 82.3222 107.212 83.2142L111.427 80.5474C111.736 80.3563 112.1 80.2925 112.455 80.3745C112.81 80.4564 113.12 80.6748 113.311 80.9752L118.171 88.6661C118.363 88.9755 118.426 89.3396 118.344 89.6946C118.263 90.0495 118.044 90.359 117.744 90.5501L113.529 93.2169C113.893 94.5275 114.121 95.8655 114.221 97.2216L119.082 98.3229C119.437 98.4049 119.746 98.6233 119.937 98.9237C120.129 99.2331 120.192 99.5972 120.11 99.9521L118.108 108.826C118.026 109.181 117.807 109.491 117.507 109.682C117.198 109.873 116.833 109.937 116.478 109.855L111.618 108.753C110.953 109.937 110.17 111.047 109.278 112.066L111.945 116.281C112.137 116.59 112.2 116.954 112.118 117.309C112.036 117.664 111.818 117.973 111.518 118.165L103.826 123.025C103.516 123.216 103.152 123.28 102.797 123.198C102.442 123.116 102.133 122.897 101.942 122.597L99.2747 118.383C97.964 118.747 96.6259 118.975 95.2696 119.075L94.1682 123.935C94.0863 124.29 93.8678 124.599 93.5675 124.791C93.349 124.927 93.0941 125 92.8392 125ZM85.5937 120.595L91.8107 121.996L92.8392 117.446C92.9758 116.836 93.5219 116.39 94.15 116.381C95.9523 116.344 97.7364 116.044 99.4386 115.47C100.03 115.27 100.695 115.507 101.031 116.035L103.526 119.976L108.914 116.572L106.42 112.631C106.083 112.103 106.156 111.411 106.593 110.956C107.849 109.655 108.887 108.18 109.688 106.569C109.97 106.005 110.598 105.704 111.208 105.85L115.759 106.879L117.161 100.662L112.61 99.6336C112 99.4971 111.554 98.951 111.545 98.3229C111.508 96.5208 111.208 94.7369 110.635 93.0349C110.434 92.4342 110.671 91.7788 111.199 91.4421L115.14 88.9482L111.736 83.56L107.795 86.0539C107.267 86.3907 106.575 86.3178 106.12 85.881C104.818 84.6249 103.344 83.5873 101.732 82.7864C101.168 82.5043 100.868 81.8762 101.013 81.2664L102.042 76.7156L95.8249 75.3139L94.7963 79.8648C94.6597 80.4746 94.1136 80.9206 93.4855 80.9297C91.6832 80.9661 89.8991 81.2664 88.197 81.8398C87.5962 82.0401 86.9408 81.8034 86.604 81.2755L84.11 77.3345L78.7213 80.7385L81.2154 84.6795C81.5522 85.2074 81.4793 85.8992 81.0424 86.3543C79.7863 87.6558 78.7486 89.1303 77.9476 90.7413C77.6654 91.3056 77.0373 91.6059 76.4275 91.4603L71.8762 90.4318L70.4744 96.6482L75.0257 97.6767C75.6355 97.8132 76.0816 98.3594 76.0907 98.9874C76.1271 100.789 76.4275 102.573 77.0009 104.275C77.2012 104.876 76.9645 105.531 76.4366 105.868L72.4952 108.362L75.8995 113.75L79.8409 111.256C80.3688 110.92 81.0606 110.992 81.5157 111.429C82.8174 112.685 84.292 113.723 85.9031 114.524C86.4675 114.806 86.7679 115.434 86.6222 116.044L85.5937 120.595Z" fill="#252D32"/>
<path d="M118.391 81.8217C117.635 81.8217 117.025 81.2119 117.025 80.4564V43.1396C117.025 42.3842 117.635 41.7744 118.391 41.7744H122.023L112.929 28.7226L103.836 41.7744H107.468C108.223 41.7744 108.833 42.3842 108.833 43.1396V55.882C108.833 56.6374 108.223 57.2472 107.468 57.2472C106.712 57.2472 106.102 56.6374 106.102 55.882V44.5049H101.223C100.714 44.5049 100.249 44.2227 100.013 43.7676C99.7761 43.3126 99.8125 42.7756 100.104 42.3569L111.81 25.5461C112.319 24.818 113.539 24.818 114.049 25.5461L125.755 42.3569C126.046 42.7756 126.082 43.3217 125.846 43.7676C125.609 44.2227 125.145 44.5049 124.635 44.5049H119.756V80.4564C119.756 81.2119 119.146 81.8217 118.391 81.8217Z" fill="#FFC960"/>
<path d="M107.467 70.8998C106.711 70.8998 106.102 70.2899 106.102 69.5345V64.0735C106.102 63.3181 106.711 62.7083 107.467 62.7083C108.222 62.7083 108.832 63.3181 108.832 64.0735V69.5345C108.832 70.2899 108.222 70.8998 107.467 70.8998Z" fill="#FFC960"/>
</g>
<defs>
<clipPath id="clip0_1505_3376">
<rect width="100" height="100" fill="white" transform="translate(26 25)"/>
</clipPath>
</defs>
</svg>
